<svg width="97" height="28" viewBox="0 0 97 28" fill="none" xmlns="http://www.w3.org/2000/svg">
<path d="M93.9985 26.5985C94.0358 27.0279 94.1945 27.3265 94.4744 27.4945C94.7544 27.6438 95.1557 27.7185 95.6784 27.7185H96.7983V27.9985H79.9992C77.4607 27.9985 75.1182 27.3732 72.9716 26.1226C70.8251 24.872 69.1265 23.1734 67.8759 21.0268C66.6253 18.8803 66 16.5378 66 13.9992C66 11.4607 66.6253 9.11817 67.8759 6.97162C69.1265 4.82507 70.8251 3.12649 72.9716 1.8759C75.1182 0.625299 77.4607 0 79.9992 0C82.1271 0 84.1243 0.429309 85.9909 1.28793C87.8761 2.12788 89.444 3.26649 90.6946 4.70374C91.9452 6.141 92.7479 7.69958 93.1025 9.37948H92.8225C92.4492 7.83024 91.6559 6.35565 90.4427 4.95573C89.2294 3.5558 87.7081 2.42653 85.8789 1.56791C84.0683 0.709293 82.1085 0.279983 79.9992 0.279983C77.834 0.279983 75.8368 0.895949 74.0076 2.12788C72.197 3.35981 70.7597 5.03039 69.6958 7.13961C68.6319 9.23016 68.0999 11.5167 68.0999 13.9992C68.0999 16.4818 68.6319 18.7776 69.6958 20.8869C70.7597 22.9774 72.197 24.6387 74.0076 25.8706C75.8368 27.1025 77.834 27.7185 79.9992 27.7185C82.1458 27.7185 84.1243 27.1118 85.9349 25.8986C87.7455 24.6853 89.1827 23.0427 90.2467 20.9709C91.3293 18.8803 91.8799 16.6031 91.8986 14.1392H85.039C84.143 14.1392 83.3217 14.3725 82.5751 14.8392C81.8285 15.3058 81.2312 15.9685 80.7832 16.8271C80.3539 17.667 80.1392 18.6376 80.1392 19.7389V23.9387C80.1392 23.976 80.1206 24.0133 80.0832 24.0507C80.0646 24.0693 80.0366 24.0787 79.9992 24.0787C79.9619 24.0787 79.9246 24.0693 79.8872 24.0507C79.8686 24.0133 79.8592 23.976 79.8592 23.9387V19.7389C79.8592 18.6376 79.6353 17.667 79.1873 16.8271C78.758 15.9685 78.17 15.3058 77.4234 14.8392C76.6767 14.3725 75.8555 14.1392 74.9595 14.1392H70.0598C69.9665 14.1392 69.9198 14.0926 69.9198 13.9992C69.9198 13.9059 69.9665 13.8592 70.0598 13.8592H74.9595C75.8555 13.8592 76.6767 13.6259 77.4234 13.1593C78.17 12.6926 78.758 12.0393 79.1873 11.1994C79.6353 10.3408 79.8592 9.36082 79.8592 8.25955V4.05978C79.8592 3.96645 79.9059 3.91978 79.9992 3.91978C80.0926 3.91978 80.1392 3.96645 80.1392 4.05978V8.25955C80.1392 9.36082 80.3539 10.3408 80.7832 11.1994C81.2312 12.0393 81.8285 12.6926 82.5751 13.1593C83.3217 13.6259 84.143 13.8592 85.039 13.8592H93.9985V26.5985ZM89.6587 27.7185C90.3493 27.7185 90.8813 27.6438 91.2546 27.4945C91.6279 27.3265 91.8426 27.0279 91.8986 26.5985V21.3908C90.8906 23.0147 89.5934 24.3773 88.0068 25.4786C86.4389 26.5799 84.703 27.3265 82.7991 27.7185H89.6587Z" fill="#366BE8"/>
<path d="M56.0849 10.9219C57.6342 10.9219 59.0621 11.3045 60.3687 12.0698C61.6753 12.8351 62.7112 13.871 63.4765 15.1776C64.2418 16.4842 64.6245 17.9122 64.6245 19.4614C64.6245 20.9173 64.2325 22.3079 63.4485 23.6332C62.6832 24.9398 61.6473 25.9944 60.3407 26.797C59.0341 27.5996 57.6155 28.0009 56.0849 28.0009C54.5357 28.0009 53.1078 27.6183 51.8012 26.853C50.4946 26.0877 49.4586 25.0518 48.6933 23.7452C47.9281 22.4386 47.5454 21.0107 47.5454 19.4614C47.5454 17.9122 47.9281 16.4842 48.6933 15.1776C49.4586 13.871 50.4946 12.8351 51.8012 12.0698C53.1078 11.3045 54.5357 10.9219 56.0849 10.9219ZM56.0849 11.2019C54.9277 11.2019 53.8544 11.5752 52.8651 12.3218C51.8758 13.0684 51.0919 14.0764 50.5132 15.3456C49.9346 16.5962 49.6453 17.9682 49.6453 19.4614C49.6453 20.9547 49.9346 22.3359 50.5132 23.6052C51.0919 24.8558 51.8758 25.8544 52.8651 26.601C53.8544 27.3476 54.9277 27.721 56.0849 27.721C57.2235 27.721 58.2875 27.3383 59.2768 26.573C60.266 25.7891 61.05 24.7625 61.6286 23.4932C62.2259 22.2239 62.5246 20.88 62.5246 19.4614C62.5246 17.9682 62.2353 16.5962 61.6566 15.3456C61.078 14.0764 60.294 13.0684 59.3048 12.3218C58.3155 11.5752 57.2422 11.2019 56.0849 11.2019Z" fill="#366BE8"/>
<path d="M21.4629 27.7185H23.0811C23.8362 27.7185 24.4161 27.6438 24.8206 27.4945C25.2252 27.3265 25.4544 27.0279 25.5084 26.5985V1.39992C25.4544 0.970612 25.2252 0.681294 24.8206 0.531969C24.4161 0.363978 23.8362 0.279983 23.0811 0.279983H21.4629V0H32.588V0.279983H30.9698C30.2146 0.279983 29.6348 0.363978 29.2302 0.531969C28.8257 0.681294 28.5964 0.970612 28.5425 1.39992V26.5985C28.5964 27.0279 28.8257 27.3265 29.2302 27.4945C29.6348 27.6438 30.2146 27.7185 30.9698 27.7185H39.6675C42.0948 27.5692 43.7804 26.9345 44.7244 25.8146C45.6683 24.676 46.1403 23.0707 46.1403 20.9988H46.5449V27.9985H21.4629V27.7185Z" fill="#366BE8"/>
<path d="M0 27.9985V27.7185H1.11994C1.64258 27.7185 2.04389 27.6438 2.32387 27.4945C2.60386 27.3265 2.76252 27.0279 2.79985 26.5985V1.39992C2.76252 0.970612 2.60386 0.681294 2.32387 0.531969C2.04389 0.363978 1.64258 0.279983 1.11994 0.279983H0V0H11.0594H11.3394C12.8886 0 14.3165 0.382645 15.6231 1.14794C16.9297 1.91323 17.9657 2.94917 18.731 4.25577C19.4963 5.56236 19.8789 6.99028 19.8789 8.53953C19.8789 9.08084 19.8416 9.56614 19.7669 9.99545C21.1295 10.8727 22.2121 12.0393 23.0147 13.4953C23.8174 14.9325 24.2187 16.5004 24.2187 18.199C24.2187 19.9722 23.78 21.6148 22.9027 23.1267C22.0255 24.62 20.8309 25.8053 19.3189 26.6825C17.8257 27.5598 16.1924 27.9985 14.4192 27.9985H0ZM11.3394 16.7991C12.4033 16.7991 13.3926 16.4818 14.3072 15.8471C15.2405 15.2125 16.0058 14.3445 16.6031 13.2433C17.2191 12.142 17.5924 10.9287 17.723 9.60347C16.6591 8.98751 15.5578 8.67952 14.4192 8.67952H13.9992C13.2153 8.67952 12.5993 8.92218 12.1513 9.40748C11.7034 9.89279 11.4794 10.5834 11.4794 11.4794V13.0193C11.4794 13.1126 11.4327 13.1593 11.3394 13.1593C11.2461 13.1593 11.1994 13.1126 11.1994 13.0193V11.4794C11.1994 10.5834 10.9754 9.89279 10.5274 9.40748C10.0794 8.92218 9.46348 8.67952 8.67952 8.67952H6.85962C6.7663 8.67952 6.71963 8.63286 6.71963 8.53953C6.71963 8.4462 6.7663 8.39954 6.85962 8.39954H8.67952C9.46348 8.39954 10.0794 8.15689 10.5274 7.67158C10.9754 7.18627 11.1994 6.49564 11.1994 5.59969V4.05978C11.1994 3.96645 11.2461 3.91978 11.3394 3.91978C11.4327 3.91978 11.4794 3.96645 11.4794 4.05978V5.59969C11.4794 6.49564 11.7034 7.18627 12.1513 7.67158C12.5993 8.15689 13.2153 8.39954 13.9992 8.39954H14.4192C15.5951 8.39954 16.7151 8.59553 17.779 8.98751V8.53953C17.779 7.04628 17.4897 5.67435 16.9111 4.42376C16.3324 3.15449 15.5485 2.14655 14.5592 1.39992C13.5699 0.653296 12.4966 0.279983 11.3394 0.279983C9.84613 0.279983 8.46487 0.653296 7.19561 1.39992C5.94501 2.14655 4.9464 3.15449 4.19977 4.42376C3.45314 5.67435 3.07983 7.04628 3.07983 8.53953C3.07983 10.0328 3.45314 11.414 4.19977 12.6833C4.9464 13.9339 5.94501 14.9325 7.19561 15.6791C8.46487 16.4258 9.84613 16.7991 11.3394 16.7991ZM11.3394 17.0791C10.0701 17.0791 8.87551 16.8177 7.75558 16.2951C6.6543 15.7725 5.70235 15.0538 4.89973 14.1392V18.199C4.89973 19.9162 5.32904 21.5028 6.18766 22.9587C7.04628 24.4147 8.20355 25.5719 9.65947 26.4306C11.1154 27.2892 12.702 27.7185 14.4192 27.7185C15.8005 27.7185 17.0791 27.2892 18.255 26.4306C19.4496 25.5719 20.3922 24.4147 21.0828 22.9587C21.7735 21.5028 22.1188 19.9162 22.1188 18.199C22.1188 16.7991 21.8855 15.4832 21.4188 14.2512C20.9522 13.0193 20.3082 11.9553 19.4869 11.0594C19.1323 12.2167 18.5537 13.2526 17.751 14.1672C16.9484 15.0818 15.9871 15.8005 14.8672 16.3231C13.7659 16.8271 12.59 17.0791 11.3394 17.0791ZM4.89973 26.5985C4.93706 27.0279 5.09572 27.3265 5.37571 27.4945C5.65569 27.6438 6.057 27.7185 6.57964 27.7185H12.0953C10.3408 27.2892 8.81018 26.4212 7.50359 25.1146C6.19699 23.808 5.32904 22.2774 4.89973 20.5229V26.5985ZM4.89973 2.93984C6.07567 1.61458 7.50359 0.727959 9.1835 0.279983H6.57964C6.057 0.279983 5.65569 0.363978 5.37571 0.531969C5.09572 0.681294 4.93706 0.970612 4.89973 1.39992V2.93984Z" fill="#366BE8"/>
</svg>
