<svg width="667" height="154" viewBox="0 0 667 154" fill="none" xmlns="http://www.w3.org/2000/svg">
<path opacity="0.1" d="M609.863 152.46H618.174C622.052 152.46 625.03 152.049 627.108 151.228C629.185 150.304 630.363 148.661 630.64 146.3V7.69999C630.363 5.33866 629.185 3.74732 627.108 2.92599C625.03 2.00199 622.052 1.53999 618.174 1.53999H609.863V0H666.998V1.53999H658.688C654.81 1.53999 651.832 2.00199 649.754 2.92599C647.676 3.74732 646.499 5.33866 646.222 7.69999V146.3C646.499 148.661 647.676 150.304 649.754 151.228C651.832 152.049 654.81 152.46 658.688 152.46H666.998V154H609.863V152.46Z" fill="#CECECE"/>
<path opacity="0.1" d="M491.451 0V1.53999H483.141C479.263 1.53999 476.285 2.00199 474.207 2.92599C472.129 3.74732 470.952 5.33866 470.675 7.69999V150.612L561.052 0H583.907V1.53999H572.479C569.017 1.53999 566.177 2.00199 563.961 2.92599C561.745 3.74732 560.083 5.08199 558.975 6.92999L524.902 63.91L574.557 147.224C576.773 150.715 581.275 152.46 588.062 152.46H599.489V154H563.13L517.006 77L470.675 154H434.316V152.46H442.627C446.505 152.46 449.483 152.049 451.561 151.228C453.638 150.304 454.816 148.661 455.093 146.3V7.69999C454.816 5.33866 453.638 3.74732 451.561 2.92599C449.483 2.00199 446.505 1.53999 442.627 1.53999H434.316V0H491.451Z" fill="#CECECE"/>
<path opacity="0.1" d="M315.905 0V1.53999H307.594C303.716 1.53999 300.738 2.00199 298.66 2.92599C296.583 3.74732 295.405 5.33866 295.128 7.69999V150.612L385.506 0H408.36V1.53999H396.933C393.47 1.53999 390.63 2.00199 388.414 2.92599C386.198 3.74732 384.536 5.08199 383.428 6.92999L349.355 63.91L399.01 147.224C401.226 150.715 405.728 152.46 412.515 152.46H423.942V154H387.583L341.46 77L295.128 154H258.77V152.46H267.08C270.958 152.46 273.936 152.049 276.014 151.228C278.092 150.304 279.269 148.661 279.546 146.3V7.69999C279.269 5.33866 278.092 3.74732 276.014 2.92599C273.936 2.00199 270.958 1.53999 267.08 1.53999H258.77V0H315.905Z" fill="#CECECE"/>
<path opacity="0.1" d="M175.547 152.46H183.857C187.736 152.46 190.714 152.049 192.791 151.228C194.869 150.304 196.046 148.661 196.323 146.3V7.69999C196.046 5.33866 194.869 3.74732 192.791 2.92599C190.714 2.00199 187.736 1.53999 183.857 1.53999H175.547V0H232.682V1.53999H224.371C220.493 1.53999 217.515 2.00199 215.438 2.92599C213.36 3.74732 212.183 5.33866 211.906 7.69999V146.3C212.183 148.661 213.36 150.304 215.438 151.228C217.515 152.049 220.493 152.46 224.371 152.46H232.682V154H175.547V152.46Z" fill="#CECECE"/>
<path opacity="0.1" d="M24.9317 6.92999L22.854 4.62V146.3C23.1311 148.661 24.3084 150.304 26.386 151.228C28.4637 152.049 31.4416 152.46 35.3199 152.46H43.6304V154H0V152.46H8.31056C12.1888 152.46 15.1668 152.049 17.2444 151.228C19.3221 150.304 20.4994 148.661 20.7764 146.3V3.23399C18.4217 2.10466 15.3053 1.53999 11.427 1.53999H0V0H36.3587L124.658 147.07L126.736 149.38V7.69999C126.459 5.33866 125.282 3.74732 123.204 2.92599C121.126 2.00199 118.148 1.53999 114.27 1.53999H105.96V0H149.59V1.53999H141.28C137.401 1.53999 134.423 2.00199 132.346 2.92599C130.268 3.74732 129.091 5.33866 128.814 7.69999V150.766C131.168 151.895 134.285 152.46 138.163 152.46H149.59V154H113.231L24.9317 6.92999Z" fill="#CECECE"/>
</svg>
