<svg width="601" height="154" viewBox="0 0 601 154" fill="none" xmlns="http://www.w3.org/2000/svg">
<path opacity="0.1" d="M457 152.46H465C468.733 152.46 471.6 152.049 473.6 151.228C475.6 150.304 476.733 148.661 477 146.3V7.69999C476.733 5.33866 475.6 3.74732 473.6 2.92599C471.6 2.00199 468.733 1.53999 465 1.53999H457V0H512V1.53999H504C500.267 1.53999 497.4 2.00199 495.4 2.92599C493.4 3.74732 492.267 5.33866 492 7.69999V46.2H566V7.69999C565.733 5.33866 564.6 3.74732 562.6 2.92599C560.6 2.00199 557.733 1.53999 554 1.53999H546V0H601V1.53999H593C589.267 1.53999 586.4 2.00199 584.4 2.92599C582.4 3.74732 581.267 5.33866 581 7.69999V146.3C581.267 148.661 582.4 150.304 584.4 151.228C586.4 152.049 589.267 152.46 593 152.46H601V154H546V152.46H554C557.733 152.46 560.6 152.049 562.6 151.228C564.6 150.304 565.733 148.661 566 146.3V47.74H492V146.3C492.267 148.661 493.4 150.304 495.4 151.228C497.4 152.049 500.267 152.46 504 152.46H512V154H457V152.46Z" fill="white"/>
<path opacity="0.1" d="M355 1.53999C343.091 1.53999 332.105 4.92799 322.044 11.704C312.085 18.48 304.18 27.6687 298.328 39.27C292.476 50.7687 289.55 63.3453 289.55 77C289.55 90.6547 292.476 103.283 298.328 114.884C304.18 126.383 312.085 135.52 322.044 142.296C332.105 149.072 343.091 152.46 355 152.46C365.78 152.46 375.687 150.201 384.722 145.684C393.757 141.064 401.303 134.955 407.36 127.358C413.52 119.761 417.883 111.445 420.45 102.41H432C428.509 112.882 423.017 122.019 415.522 129.822C408.13 137.522 399.198 143.477 388.726 147.686C378.357 151.895 367.115 154 355 154C341.037 154 328.153 150.561 316.346 143.682C304.539 136.803 295.197 127.461 288.318 115.654C281.439 103.847 278 90.9627 278 77C278 63.0373 281.439 50.1527 288.318 38.346C295.197 26.5393 304.539 17.1967 316.346 10.318C328.153 3.43933 341.037 0 355 0C366.704 0 377.689 2.36133 387.956 7.08399C398.325 11.704 406.949 17.9667 413.828 25.872C420.707 33.7773 425.121 42.35 427.072 51.59H425.532C423.479 43.0687 419.115 34.958 412.442 27.258C405.769 19.558 397.401 13.3467 387.34 8.62399C377.381 3.90132 366.601 1.53999 355 1.53999ZM354.23 108.57C354.23 102.513 352.998 97.174 350.534 92.554C348.173 87.8313 344.939 84.1867 340.832 81.62C336.725 79.0533 332.208 77.77 327.28 77.77H300.33C299.817 77.77 299.56 77.5133 299.56 77C299.56 76.4867 299.817 76.23 300.33 76.23H327.28C332.208 76.23 336.725 74.9467 340.832 72.38C344.939 69.8133 348.173 66.22 350.534 61.6C352.998 56.8773 354.23 51.4873 354.23 45.43V22.33C354.23 21.8167 354.487 21.56 355 21.56C355.513 21.56 355.77 21.8167 355.77 22.33V45.43C355.77 51.4873 356.951 56.8773 359.312 61.6C361.776 66.22 365.061 69.8133 369.168 72.38C373.275 74.9467 377.792 76.23 382.72 76.23H409.67C410.183 76.23 410.44 76.4867 410.44 77C410.44 77.5133 410.183 77.77 409.67 77.77H382.72C377.792 77.77 373.275 79.0533 369.168 81.62C365.061 84.1867 361.776 87.8313 359.312 92.554C356.951 97.174 355.77 102.513 355.77 108.57V131.67C355.77 131.875 355.667 132.081 355.462 132.286C355.359 132.389 355.205 132.44 355 132.44C354.795 132.44 354.589 132.389 354.384 132.286C354.281 132.081 354.23 131.875 354.23 131.67V108.57Z" fill="white"/>
<path opacity="0.1" d="M253 38.5H251C251 27.104 248.667 18.326 244 12.166C239.333 5.90332 231 2.36132 219 1.53999H176C172.267 1.53999 169.4 2.00199 167.4 2.92599C165.4 3.74732 164.267 5.33866 164 7.69999V46.2H180C185.467 46.2 190.133 44.7113 194 41.734C198 38.654 200 35.0093 200 30.8H202V63.14H200C200 58.9307 198 55.3373 194 52.36C190.133 49.28 185.467 47.74 180 47.74H164V146.3C164.267 148.661 165.4 150.304 167.4 151.228C169.4 152.049 172.267 152.46 176 152.46H219C231 151.639 239.333 148.148 244 141.988C248.667 135.725 251 126.896 251 115.5H253V154H129V152.46H137C140.733 152.46 143.6 152.049 145.6 151.228C147.6 150.304 148.733 148.661 149 146.3V7.69999C148.733 5.33866 147.6 3.74732 145.6 2.92599C143.6 2.00199 140.733 1.53999 137 1.53999H129V0H253V38.5Z" fill="white"/>
<path opacity="0.1" d="M104 0V38.5H101.981C101.981 27.104 99.6246 18.326 94.9126 12.166C90.2007 5.90332 81.7864 2.36132 69.6699 1.53999H59.5728V146.3C59.8421 148.661 60.9864 150.304 63.0058 151.228C65.0252 152.049 67.9197 152.46 71.6893 152.46H79.767V154H24.233V152.46H32.3107C36.0803 152.46 38.9748 152.049 40.9942 151.228C43.0136 150.304 44.1579 148.661 44.4272 146.3V1.53999H34.3301C22.2136 2.36132 13.7994 5.90332 9.08738 12.166C4.3754 18.326 2.01942 27.104 2.01942 38.5H0V0H104Z" fill="white"/>
</svg>
