<svg width="809" height="137" viewBox="0 0 809 137" fill="none" xmlns="http://www.w3.org/2000/svg">
<path d="M795.3 130.151C795.483 132.252 796.259 133.713 797.629 134.535C798.999 135.266 800.963 135.631 803.52 135.631H809V137.001H726.799C714.378 137.001 702.916 133.942 692.412 127.822C681.909 121.703 673.597 113.391 667.478 102.888C661.359 92.3845 658.299 80.9221 658.299 68.5006C658.299 56.0792 661.359 44.6167 667.478 34.1133C673.597 23.6099 681.909 15.2985 692.412 9.17908C702.916 3.05969 714.378 0 726.799 0C737.212 0 746.984 2.10068 756.118 6.30205C765.342 10.4121 773.015 15.9835 779.134 23.0162C785.253 30.0489 789.181 37.6753 790.916 45.8954H789.546C787.719 38.3147 783.838 31.0993 777.901 24.2492C771.964 17.3992 764.52 11.8734 755.57 7.67206C746.71 3.47069 737.12 1.37 726.799 1.37C716.205 1.37 706.432 4.38403 697.481 10.4121C688.622 16.4401 681.589 24.6146 676.383 34.9353C671.177 45.1648 668.574 56.3532 668.574 68.5006C668.574 80.6481 671.177 91.8822 676.383 102.203C681.589 112.432 688.622 120.561 697.481 126.589C706.432 132.617 716.205 135.631 726.799 135.631C737.303 135.631 746.984 132.663 755.844 126.726C764.703 120.789 771.736 112.752 776.942 102.614C782.239 92.3845 784.934 81.2418 785.025 69.1856H751.46C747.076 69.1856 743.057 70.3273 739.404 72.6107C735.75 74.894 732.828 78.1364 730.635 82.3378C728.535 86.4478 727.484 91.1972 727.484 96.5859V117.136C727.484 117.319 727.393 117.501 727.21 117.684C727.119 117.775 726.982 117.821 726.799 117.821C726.617 117.821 726.434 117.775 726.251 117.684C726.16 117.501 726.114 117.319 726.114 117.136V96.5859C726.114 91.1972 725.018 86.4478 722.826 82.3378C720.726 78.1364 717.849 74.894 714.195 72.6107C710.542 70.3273 706.523 69.1856 702.139 69.1856H678.164C677.707 69.1856 677.479 68.9573 677.479 68.5006C677.479 68.044 677.707 67.8156 678.164 67.8156H702.139C706.523 67.8156 710.542 66.674 714.195 64.3906C717.849 62.1072 720.726 58.9106 722.826 54.8005C725.018 50.5991 726.114 45.8041 726.114 40.4154V19.8652C726.114 19.4085 726.343 19.1802 726.799 19.1802C727.256 19.1802 727.484 19.4085 727.484 19.8652V40.4154C727.484 45.8041 728.535 50.5991 730.635 54.8005C732.828 58.9106 735.75 62.1072 739.404 64.3906C743.057 66.674 747.076 67.8156 751.46 67.8156H795.3V130.151ZM774.065 135.631C777.444 135.631 780.047 135.266 781.874 134.535C783.701 133.713 784.751 132.252 785.025 130.151V104.669C780.093 112.615 773.745 119.282 765.982 124.671C758.31 130.06 749.816 133.713 740.5 135.631H774.065Z" fill="#E84F36"/>
<path d="M616 53C623.62 53 630.643 54.882 637.069 58.6459C643.495 62.4098 648.59 67.5049 652.354 73.9311C656.118 80.3574 658 87.3803 658 95C658 102.161 656.072 109 652.216 115.518C648.452 121.944 643.357 127.131 636.931 131.079C630.505 135.026 623.528 137 616 137C608.38 137 601.357 135.118 594.931 131.354C588.505 127.59 583.41 122.495 579.646 116.069C575.882 109.643 574 102.62 574 95C574 87.3803 575.882 80.3574 579.646 73.9311C583.41 67.5049 588.505 62.4098 594.931 58.6459C601.357 54.882 608.38 53 616 53ZM616 54.377C610.308 54.377 605.029 56.2131 600.164 59.8852C595.298 63.5574 591.443 68.5148 588.597 74.7574C585.751 80.9082 584.328 87.6557 584.328 95C584.328 102.344 585.751 109.138 588.597 115.38C591.443 121.531 595.298 126.443 600.164 130.115C605.029 133.787 610.308 135.623 616 135.623C621.6 135.623 626.833 133.741 631.698 129.977C636.564 126.121 640.42 121.072 643.266 114.83C646.203 108.587 647.672 101.977 647.672 95C647.672 87.6557 646.249 80.9082 643.403 74.7574C640.557 68.5148 636.702 63.5574 631.836 59.8852C626.971 56.2131 621.692 54.377 616 54.377Z" fill="#E84F36"/>
<path d="M530 53C537.62 53 544.643 54.882 551.069 58.6459C557.495 62.4098 562.59 67.5049 566.354 73.9311C570.118 80.3574 572 87.3803 572 95C572 102.161 570.072 109 566.216 115.518C562.452 121.944 557.357 127.131 550.931 131.079C544.505 135.026 537.528 137 530 137C522.38 137 515.357 135.118 508.931 131.354C502.505 127.59 497.41 122.495 493.646 116.069C489.882 109.643 488 102.62 488 95C488 87.3803 489.882 80.3574 493.646 73.9311C497.41 67.5049 502.505 62.4098 508.931 58.6459C515.357 54.882 522.38 53 530 53ZM530 54.377C524.308 54.377 519.029 56.2131 514.164 59.8852C509.298 63.5574 505.443 68.5148 502.597 74.7574C499.751 80.9082 498.328 87.6557 498.328 95C498.328 102.344 499.751 109.138 502.597 115.38C505.443 121.531 509.298 126.443 514.164 130.115C519.029 133.787 524.308 135.623 530 135.623C535.6 135.623 540.833 133.741 545.698 129.977C550.564 126.121 554.42 121.072 557.266 114.83C560.203 108.587 561.672 101.977 561.672 95C561.672 87.6557 560.249 80.9082 557.403 74.7574C554.557 68.5148 550.702 63.5574 545.836 59.8852C540.971 56.2131 535.692 54.377 530 54.377Z" fill="#E84F36"/>
<path d="M444 53C451.62 53 458.643 54.882 465.069 58.6459C471.495 62.4098 476.59 67.5049 480.354 73.9311C484.118 80.3574 486 87.3803 486 95C486 102.161 484.072 109 480.216 115.518C476.452 121.944 471.357 127.131 464.931 131.079C458.505 135.026 451.528 137 444 137C436.38 137 429.357 135.118 422.931 131.354C416.505 127.59 411.41 122.495 407.646 116.069C403.882 109.643 402 102.62 402 95C402 87.3803 403.882 80.3574 407.646 73.9311C411.41 67.5049 416.505 62.4098 422.931 58.6459C429.357 54.882 436.38 53 444 53ZM444 54.377C438.308 54.377 433.03 56.2131 428.164 59.8852C423.298 63.5574 419.443 68.5148 416.597 74.7574C413.751 80.9082 412.328 87.6557 412.328 95C412.328 102.344 413.751 109.138 416.597 115.38C419.443 121.531 423.298 126.443 428.164 130.115C433.03 133.787 438.308 135.623 444 135.623C449.6 135.623 454.833 133.741 459.698 129.977C464.564 126.121 468.42 121.072 471.266 114.83C474.203 108.587 475.672 101.977 475.672 95C475.672 87.6557 474.249 80.9082 471.403 74.7574C468.557 68.5148 464.702 63.5574 459.836 59.8852C454.97 56.2131 449.692 54.377 444 54.377Z" fill="#E84F36"/>
<path d="M358 53C365.62 53 372.643 54.882 379.069 58.6459C385.495 62.4098 390.59 67.5049 394.354 73.9311C398.118 80.3574 400 87.3803 400 95C400 102.161 398.072 109 394.216 115.518C390.452 121.944 385.357 127.131 378.931 131.079C372.505 135.026 365.528 137 358 137C350.38 137 343.357 135.118 336.931 131.354C330.505 127.59 325.41 122.495 321.646 116.069C317.882 109.643 316 102.62 316 95C316 87.3803 317.882 80.3574 321.646 73.9311C325.41 67.5049 330.505 62.4098 336.931 58.6459C343.357 54.882 350.38 53 358 53ZM358 54.377C352.308 54.377 347.03 56.2131 342.164 59.8852C337.298 63.5574 333.443 68.5148 330.597 74.7574C327.751 80.9082 326.328 87.6557 326.328 95C326.328 102.344 327.751 109.138 330.597 115.38C333.443 121.531 337.298 126.443 342.164 130.115C347.03 133.787 352.308 135.623 358 135.623C363.6 135.623 368.833 133.741 373.698 129.977C378.564 126.121 382.42 121.072 385.266 114.83C388.203 108.587 389.672 101.977 389.672 95C389.672 87.6557 388.249 80.9082 385.403 74.7574C382.557 68.5148 378.702 63.5574 373.836 59.8852C368.971 56.2131 363.692 54.377 358 54.377Z" fill="#E84F36"/>
<path d="M272 53C279.62 53 286.643 54.882 293.069 58.6459C299.495 62.4098 304.59 67.5049 308.354 73.9311C312.118 80.3574 314 87.3803 314 95C314 102.161 312.072 109 308.216 115.518C304.452 121.944 299.357 127.131 292.931 131.079C286.505 135.026 279.528 137 272 137C264.38 137 257.357 135.118 250.931 131.354C244.505 127.59 239.41 122.495 235.646 116.069C231.882 109.643 230 102.62 230 95C230 87.3803 231.882 80.3574 235.646 73.9311C239.41 67.5049 244.505 62.4098 250.931 58.6459C257.357 54.882 264.38 53 272 53ZM272 54.377C266.308 54.377 261.03 56.2131 256.164 59.8852C251.298 63.5574 247.443 68.5148 244.597 74.7574C241.751 80.9082 240.328 87.6557 240.328 95C240.328 102.344 241.751 109.138 244.597 115.38C247.443 121.531 251.298 126.443 256.164 130.115C261.03 133.787 266.308 135.623 272 135.623C277.6 135.623 282.833 133.741 287.698 129.977C292.564 126.121 296.42 121.072 299.266 114.83C302.203 108.587 303.672 101.977 303.672 95C303.672 87.6557 302.249 80.9082 299.403 74.7574C296.557 68.5148 292.702 63.5574 287.836 59.8852C282.97 56.2131 277.692 54.377 272 54.377Z" fill="#E84F36"/>
<path d="M105.035 135.631H112.953C116.648 135.631 119.485 135.266 121.465 134.535C123.444 133.713 124.566 132.252 124.83 130.151V6.85006C124.566 4.74937 123.444 3.33369 121.465 2.60302C119.485 1.78101 116.648 1.37 112.953 1.37H105.035V0H159.472V1.37H151.553C147.858 1.37 145.021 1.78101 143.041 2.60302C141.062 3.33369 139.94 4.74937 139.676 6.85006V130.151C139.94 132.252 141.062 133.713 143.041 134.535C145.021 135.266 147.858 135.631 151.553 135.631H194.113C205.99 134.901 214.238 131.795 218.857 126.315C223.476 120.744 225.785 112.889 225.785 102.751H227.765V137.001H105.035V135.631Z" fill="#E84F36"/>
<path d="M0 137.001V135.631H5.48005C8.03741 135.631 10.0011 135.266 11.3711 134.535C12.7411 133.713 13.5175 132.252 13.7001 130.151V6.85006C13.5175 4.74937 12.7411 3.33369 11.3711 2.60302C10.0011 1.78101 8.03741 1.37 5.48005 1.37H0V0H54.1155H55.4855C63.0663 0 70.0533 1.87235 76.4467 5.61705C82.8401 9.36175 87.9092 14.4308 91.6539 20.8242C95.3986 27.2176 97.2709 34.2046 97.2709 41.7854C97.2709 44.4341 97.0882 46.8088 96.7229 48.9095C103.39 53.2022 108.688 58.9106 112.615 66.0346C116.542 73.0674 118.506 80.7394 118.506 89.0508C118.506 97.7276 116.36 105.765 112.067 113.163C107.774 120.47 101.929 126.27 94.5309 130.562C87.2242 134.855 79.2324 137.001 70.5557 137.001H0ZM55.4855 82.2008C60.6916 82.2008 65.5323 80.6481 70.0077 77.5427C74.5744 74.4374 78.3191 70.1903 81.2418 64.8016C84.2558 59.4129 86.0825 53.4762 86.7218 46.9914C81.5158 43.9774 76.1271 42.4704 70.5557 42.4704H68.5006C64.6646 42.4704 61.6506 43.6577 59.4586 46.0324C57.2665 48.4071 56.1705 51.7865 56.1705 56.1705V63.7056C56.1705 64.1623 55.9422 64.3906 55.4855 64.3906C55.0289 64.3906 54.8005 64.1623 54.8005 63.7056V56.1705C54.8005 51.7865 53.7045 48.4071 51.5125 46.0324C49.3205 43.6577 46.3064 42.4704 42.4704 42.4704H33.5653C33.1086 42.4704 32.8803 42.2421 32.8803 41.7854C32.8803 41.3287 33.1086 41.1004 33.5653 41.1004H42.4704C46.3064 41.1004 49.3205 39.913 51.5125 37.5384C53.7045 35.1637 54.8005 31.7843 54.8005 27.4003V19.8652C54.8005 19.4085 55.0289 19.1802 55.4855 19.1802C55.9422 19.1802 56.1705 19.4085 56.1705 19.8652V27.4003C56.1705 31.7843 57.2665 35.1637 59.4586 37.5384C61.6506 39.913 64.6646 41.1004 68.5006 41.1004H70.5557C76.3097 41.1004 81.7898 42.0594 86.9958 43.9774V41.7854C86.9958 34.4787 85.5801 27.7656 82.7488 21.6462C79.9174 15.4355 76.0814 10.5034 71.2407 6.85006C66.4 3.19669 61.1482 1.37 55.4855 1.37C48.1788 1.37 41.4201 3.19669 35.2093 6.85006C29.0899 10.5034 24.2036 15.4355 20.5502 21.6462C16.8968 27.7656 15.0701 34.4787 15.0701 41.7854C15.0701 49.0921 16.8968 55.8509 20.5502 62.0616C24.2036 68.181 29.0899 73.0674 35.2093 76.7207C41.4201 80.3741 48.1788 82.2008 55.4855 82.2008ZM55.4855 83.5708C49.2748 83.5708 43.4294 82.2921 37.9494 79.7347C32.5606 77.1774 27.9026 73.661 23.9752 69.1856V89.0508C23.9752 97.4536 26.0759 105.217 30.2773 112.341C34.4787 119.465 40.1414 125.128 47.2654 129.329C54.3895 133.531 62.1529 135.631 70.5557 135.631C77.3144 135.631 83.5708 133.531 89.3248 129.329C95.1702 125.128 99.7826 119.465 103.162 112.341C106.541 105.217 108.231 97.4536 108.231 89.0508C108.231 82.2008 107.089 75.7617 104.806 69.7337C102.523 63.7056 99.3716 58.4995 95.3529 54.1155C93.6175 59.7782 90.7862 64.8473 86.8588 69.3226C82.9315 73.798 78.2277 77.3144 72.7477 79.8717C67.359 82.3378 61.6049 83.5708 55.4855 83.5708ZM23.9752 130.151C24.1579 132.252 24.9342 133.713 26.3042 134.535C27.6743 135.266 29.6379 135.631 32.1953 135.631H59.1846C50.5991 133.531 43.1097 129.284 36.7163 122.89C30.323 116.497 26.0759 109.007 23.9752 100.422V130.151ZM23.9752 14.3851C29.7293 7.9004 36.7163 3.56203 44.9364 1.37H32.1953C29.6379 1.37 27.6743 1.78101 26.3042 2.60302C24.9342 3.33369 24.1579 4.74937 23.9752 6.85006V14.3851Z" fill="#E84F36"/>
</svg>
