<svg width="788" height="137" viewBox="0 0 788 137" fill="none" xmlns="http://www.w3.org/2000/svg">
<path d="M774.298 130.151C774.481 132.252 775.257 133.713 776.627 134.535C777.997 135.266 779.961 135.631 782.518 135.631H787.998V137.001H705.798C693.376 137.001 681.914 133.942 671.41 127.822C660.907 121.703 652.595 113.391 646.476 102.888C640.357 92.3845 637.297 80.9221 637.297 68.5006C637.297 56.0792 640.357 44.6167 646.476 34.1133C652.595 23.6099 660.907 15.2985 671.41 9.17908C681.914 3.05969 693.376 0 705.798 0C716.21 0 725.982 2.10068 735.116 6.30205C744.341 10.4121 752.013 15.9835 758.132 23.0162C764.251 30.0489 768.179 37.6753 769.914 45.8954H768.544C766.717 38.3147 762.836 31.0993 756.899 24.2492C750.962 17.3992 743.519 11.8734 734.568 7.67206C725.708 3.47069 716.118 1.37 705.798 1.37C695.203 1.37 685.43 4.38403 676.479 10.4121C667.62 16.4401 660.587 24.6146 655.381 34.9353C650.175 45.1648 647.572 56.3532 647.572 68.5006C647.572 80.6481 650.175 91.8822 655.381 102.203C660.587 112.432 667.62 120.561 676.479 126.589C685.43 132.617 695.203 135.631 705.798 135.631C716.301 135.631 725.982 132.663 734.842 126.726C743.701 120.789 750.734 112.752 755.94 102.614C761.237 92.3845 763.932 81.2418 764.023 69.1856H730.458C726.074 69.1856 722.055 70.3273 718.402 72.6107C714.748 74.894 711.826 78.1364 709.634 82.3378C707.533 86.4478 706.483 91.1972 706.483 96.5859V117.136C706.483 117.319 706.391 117.501 706.209 117.684C706.117 117.775 705.98 117.821 705.798 117.821C705.615 117.821 705.432 117.775 705.249 117.684C705.158 117.501 705.112 117.319 705.112 117.136V96.5859C705.112 91.1972 704.016 86.4478 701.824 82.3378C699.724 78.1364 696.847 74.894 693.193 72.6107C689.54 70.3273 685.521 69.1856 681.137 69.1856H657.162C656.705 69.1856 656.477 68.9573 656.477 68.5006C656.477 68.044 656.705 67.8156 657.162 67.8156H681.137C685.521 67.8156 689.54 66.674 693.193 64.3906C696.847 62.1072 699.724 58.9106 701.824 54.8005C704.016 50.5991 705.112 45.8041 705.112 40.4154V19.8652C705.112 19.4085 705.341 19.1802 705.798 19.1802C706.254 19.1802 706.483 19.4085 706.483 19.8652V40.4154C706.483 45.8041 707.533 50.5991 709.634 54.8005C711.826 58.9106 714.748 62.1072 718.402 64.3906C722.055 66.674 726.074 67.8156 730.458 67.8156H774.298V130.151ZM753.063 135.631C756.442 135.631 759.045 135.266 760.872 134.535C762.699 133.713 763.749 132.252 764.023 130.151V104.669C759.091 112.615 752.743 119.282 744.98 124.671C737.308 130.06 728.814 133.713 719.498 135.631H753.063Z" fill="#366BE8"/>
<path d="M595.567 53.4297C603.147 53.4297 610.134 55.302 616.528 59.0467C622.921 62.7914 627.99 67.8605 631.735 74.2539C635.48 80.6473 637.352 87.6343 637.352 95.2151C637.352 102.339 635.434 109.144 631.598 115.628C627.853 122.022 622.784 127.182 616.391 131.109C609.997 135.037 603.056 137 595.567 137C587.986 137 580.999 135.128 574.605 131.383C568.212 127.639 563.143 122.57 559.398 116.176C555.654 109.783 553.781 102.796 553.781 95.2151C553.781 87.6343 555.654 80.6473 559.398 74.2539C563.143 67.8605 568.212 62.7914 574.605 59.0467C580.999 55.302 587.986 53.4297 595.567 53.4297ZM595.567 54.7997C589.904 54.7997 584.652 56.6264 579.811 60.2798C574.971 63.9331 571.135 68.8652 568.303 75.0759C565.472 81.1953 564.056 87.9083 564.056 95.2151C564.056 102.522 565.472 109.281 568.303 115.491C571.135 121.611 574.971 126.497 579.811 130.15C584.652 133.804 589.904 135.63 595.567 135.63C601.138 135.63 606.344 133.758 611.185 130.013C616.025 126.177 619.862 121.154 622.693 114.943C625.616 108.733 627.077 102.156 627.077 95.2151C627.077 87.9083 625.661 81.1953 622.83 75.0759C619.999 68.8652 616.163 63.9331 611.322 60.2798C606.481 56.6264 601.229 54.7997 595.567 54.7997Z" fill="#366BE8"/>
<path d="M514.067 53.4297C521.647 53.4297 528.634 55.302 535.028 59.0467C541.421 62.7914 546.49 67.8605 550.235 74.2539C553.98 80.6473 555.852 87.6343 555.852 95.2151C555.852 102.339 553.934 109.144 550.098 115.628C546.353 122.022 541.284 127.182 534.891 131.109C528.497 135.037 521.556 137 514.067 137C506.486 137 499.499 135.128 493.105 131.383C486.712 127.639 481.643 122.57 477.898 116.176C474.154 109.783 472.281 102.796 472.281 95.2151C472.281 87.6343 474.154 80.6473 477.898 74.2539C481.643 67.8605 486.712 62.7914 493.105 59.0467C499.499 55.302 506.486 53.4297 514.067 53.4297ZM514.067 54.7997C508.404 54.7997 503.152 56.6264 498.311 60.2798C493.471 63.9331 489.635 68.8652 486.803 75.0759C483.972 81.1953 482.556 87.9083 482.556 95.2151C482.556 102.522 483.972 109.281 486.803 115.491C489.635 121.611 493.471 126.497 498.311 130.15C503.152 133.804 508.404 135.63 514.067 135.63C519.638 135.63 524.844 133.758 529.685 130.013C534.525 126.177 538.362 121.154 541.193 114.943C544.116 108.733 545.577 102.156 545.577 95.2151C545.577 87.9083 544.161 81.1953 541.33 75.0759C538.499 68.8652 534.663 63.9331 529.822 60.2798C524.981 56.6264 519.729 54.7997 514.067 54.7997Z" fill="#366BE8"/>
<path d="M432.555 53.4297C440.136 53.4297 447.123 55.302 453.516 59.0467C459.91 62.7914 464.979 67.8605 468.723 74.2539C472.468 80.6473 474.34 87.6343 474.34 95.2151C474.34 102.339 472.422 109.144 468.586 115.628C464.842 122.022 459.773 127.182 453.379 131.109C446.986 135.037 440.044 137 432.555 137C424.974 137 417.987 135.128 411.594 131.383C405.2 127.639 400.131 122.57 396.387 116.176C392.642 109.783 390.77 102.796 390.77 95.2151C390.77 87.6343 392.642 80.6473 396.387 74.2539C400.131 67.8605 405.2 62.7914 411.594 59.0467C417.987 55.302 424.974 53.4297 432.555 53.4297ZM432.555 54.7997C426.892 54.7997 421.64 56.6264 416.8 60.2798C411.959 63.9331 408.123 68.8652 405.292 75.0759C402.46 81.1953 401.045 87.9083 401.045 95.2151C401.045 102.522 402.46 109.281 405.292 115.491C408.123 121.611 411.959 126.497 416.8 130.15C421.64 133.804 426.892 135.63 432.555 135.63C438.126 135.63 443.332 133.758 448.173 130.013C453.014 126.177 456.85 121.154 459.681 114.943C462.604 108.733 464.065 102.156 464.065 95.2151C464.065 87.9083 462.65 81.1953 459.818 75.0759C456.987 68.8652 453.151 63.9331 448.31 60.2798C443.469 56.6264 438.218 54.7997 432.555 54.7997Z" fill="#366BE8"/>
<path d="M351.051 53.4297C358.632 53.4297 365.619 55.302 372.012 59.0467C378.406 62.7914 383.475 67.8605 387.219 74.2539C390.964 80.6473 392.836 87.6343 392.836 95.2151C392.836 102.339 390.918 109.144 387.082 115.628C383.338 122.022 378.269 127.182 371.875 131.109C365.482 135.037 358.54 137 351.051 137C343.47 137 336.483 135.128 330.09 131.383C323.696 127.639 318.627 122.57 314.883 116.176C311.138 109.783 309.266 102.796 309.266 95.2151C309.266 87.6343 311.138 80.6473 314.883 74.2539C318.627 67.8605 323.696 62.7914 330.09 59.0467C336.483 55.302 343.47 53.4297 351.051 53.4297ZM351.051 54.7997C345.388 54.7997 340.137 56.6264 335.296 60.2798C330.455 63.9331 326.619 68.8652 323.788 75.0759C320.956 81.1953 319.541 87.9083 319.541 95.2151C319.541 102.522 320.956 109.281 323.788 115.491C326.619 121.611 330.455 126.497 335.296 130.15C340.137 133.804 345.388 135.63 351.051 135.63C356.622 135.63 361.828 133.758 366.669 130.013C371.51 126.177 375.346 121.154 378.177 114.943C381.1 108.733 382.561 102.156 382.561 95.2151C382.561 87.9083 381.146 81.1953 378.314 75.0759C375.483 68.8652 371.647 63.9331 366.806 60.2798C361.965 56.6264 356.714 54.7997 351.051 54.7997Z" fill="#366BE8"/>
<path d="M269.555 53.4297C277.136 53.4297 284.123 55.302 290.516 59.0467C296.91 62.7914 301.979 67.8605 305.723 74.2539C309.468 80.6473 311.34 87.6343 311.34 95.2151C311.34 102.339 309.422 109.144 305.586 115.628C301.842 122.022 296.773 127.182 290.379 131.109C283.986 135.037 277.044 137 269.555 137C261.974 137 254.987 135.128 248.594 131.383C242.2 127.639 237.131 122.57 233.387 116.176C229.642 109.783 227.77 102.796 227.77 95.2151C227.77 87.6343 229.642 80.6473 233.387 74.2539C237.131 67.8605 242.2 62.7914 248.594 59.0467C254.987 55.302 261.974 53.4297 269.555 53.4297ZM269.555 54.7997C263.892 54.7997 258.64 56.6264 253.8 60.2798C248.959 63.9331 245.123 68.8652 242.292 75.0759C239.46 81.1953 238.045 87.9083 238.045 95.2151C238.045 102.522 239.46 109.281 242.292 115.491C245.123 121.611 248.959 126.497 253.8 130.15C258.64 133.804 263.892 135.63 269.555 135.63C275.126 135.63 280.332 133.758 285.173 130.013C290.014 126.177 293.85 121.154 296.681 114.943C299.604 108.733 301.065 102.156 301.065 95.2151C301.065 87.9083 299.65 81.1953 296.818 75.0759C293.987 68.8652 290.151 63.9331 285.31 60.2798C280.469 56.6264 275.218 54.7997 269.555 54.7997Z" fill="#366BE8"/>
<path d="M105.035 135.631H112.953C116.648 135.631 119.486 135.266 121.465 134.535C123.445 133.713 124.566 132.252 124.83 130.151V6.85006C124.566 4.74937 123.445 3.33369 121.465 2.60302C119.486 1.78101 116.648 1.37 112.953 1.37H105.035V0H159.472V1.37H151.554C147.859 1.37 145.021 1.78101 143.042 2.60302C141.062 3.33369 139.941 4.74937 139.677 6.85006V130.151C139.941 132.252 141.062 133.713 143.042 134.535C145.021 135.266 147.859 135.631 151.554 135.631H194.114C205.991 134.901 214.239 131.795 218.858 126.315C223.477 120.744 225.786 112.889 225.786 102.751H227.765V137.001H105.035V135.631Z" fill="#366BE8"/>
<path d="M0 137.001V135.631H5.48005C8.03741 135.631 10.0011 135.266 11.3711 134.535C12.7411 133.713 13.5175 132.252 13.7001 130.151V6.85006C13.5175 4.74937 12.7411 3.33369 11.3711 2.60302C10.0011 1.78101 8.03741 1.37 5.48005 1.37H0V0H54.1155H55.4855C63.0663 0 70.0533 1.87235 76.4467 5.61705C82.8401 9.36175 87.9092 14.4308 91.6539 20.8242C95.3986 27.2176 97.2709 34.2046 97.2709 41.7854C97.2709 44.4341 97.0882 46.8088 96.7229 48.9095C103.39 53.2022 108.688 58.9106 112.615 66.0346C116.542 73.0674 118.506 80.7394 118.506 89.0508C118.506 97.7276 116.36 105.765 112.067 113.163C107.774 120.47 101.929 126.27 94.5309 130.562C87.2242 134.855 79.2324 137.001 70.5557 137.001H0ZM55.4855 82.2008C60.6916 82.2008 65.5323 80.6481 70.0077 77.5427C74.5744 74.4374 78.3191 70.1903 81.2418 64.8016C84.2558 59.4129 86.0825 53.4762 86.7218 46.9914C81.5158 43.9774 76.1271 42.4704 70.5557 42.4704H68.5006C64.6646 42.4704 61.6506 43.6577 59.4586 46.0324C57.2665 48.4071 56.1705 51.7865 56.1705 56.1705V63.7056C56.1705 64.1623 55.9422 64.3906 55.4855 64.3906C55.0289 64.3906 54.8005 64.1623 54.8005 63.7056V56.1705C54.8005 51.7865 53.7045 48.4071 51.5125 46.0324C49.3205 43.6577 46.3064 42.4704 42.4704 42.4704H33.5653C33.1086 42.4704 32.8803 42.2421 32.8803 41.7854C32.8803 41.3287 33.1086 41.1004 33.5653 41.1004H42.4704C46.3064 41.1004 49.3205 39.913 51.5125 37.5384C53.7045 35.1637 54.8005 31.7843 54.8005 27.4003V19.8652C54.8005 19.4085 55.0289 19.1802 55.4855 19.1802C55.9422 19.1802 56.1705 19.4085 56.1705 19.8652V27.4003C56.1705 31.7843 57.2665 35.1637 59.4586 37.5384C61.6506 39.913 64.6646 41.1004 68.5006 41.1004H70.5557C76.3097 41.1004 81.7898 42.0594 86.9958 43.9774V41.7854C86.9958 34.4787 85.5801 27.7656 82.7488 21.6462C79.9174 15.4355 76.0814 10.5034 71.2407 6.85006C66.4 3.19669 61.1482 1.37 55.4855 1.37C48.1788 1.37 41.4201 3.19669 35.2093 6.85006C29.0899 10.5034 24.2036 15.4355 20.5502 21.6462C16.8968 27.7656 15.0701 34.4787 15.0701 41.7854C15.0701 49.0921 16.8968 55.8509 20.5502 62.0616C24.2036 68.181 29.0899 73.0674 35.2093 76.7207C41.4201 80.3741 48.1788 82.2008 55.4855 82.2008ZM55.4855 83.5708C49.2748 83.5708 43.4294 82.2921 37.9494 79.7347C32.5606 77.1774 27.9026 73.661 23.9752 69.1856V89.0508C23.9752 97.4536 26.0759 105.217 30.2773 112.341C34.4787 119.465 40.1414 125.128 47.2654 129.329C54.3895 133.531 62.1529 135.631 70.5557 135.631C77.3144 135.631 83.5708 133.531 89.3248 129.329C95.1702 125.128 99.7826 119.465 103.162 112.341C106.541 105.217 108.231 97.4536 108.231 89.0508C108.231 82.2008 107.089 75.7617 104.806 69.7337C102.523 63.7056 99.3716 58.4995 95.3529 54.1155C93.6175 59.7782 90.7862 64.8473 86.8588 69.3226C82.9315 73.798 78.2277 77.3144 72.7477 79.8717C67.359 82.3378 61.6049 83.5708 55.4855 83.5708ZM23.9752 130.151C24.1579 132.252 24.9342 133.713 26.3042 134.535C27.6743 135.266 29.6379 135.631 32.1953 135.631H59.1846C50.5991 133.531 43.1097 129.284 36.7163 122.89C30.323 116.497 26.0759 109.007 23.9752 100.422V130.151ZM23.9752 14.3851C29.7293 7.9004 36.7163 3.56203 44.9364 1.37H32.1953C29.6379 1.37 27.6743 1.78101 26.3042 2.60302C24.9342 3.33369 24.1579 4.74937 23.9752 6.85006V14.3851Z" fill="#366BE8"/>
</svg>
